# xmcd CD database file
#
# Track frame offsets:
#	150
#	15706
#	33154
#	49395
#	65313
#	78294
#	91480
#	105706
#	127941
#	144360
#	162155
#	175387
#	195691
#	209456
#	227032
#	240181
#	256690
#
# Disc length: 3654 seconds
#
# Revision: 0
# Processed by: cddbd v1.5.2PL0 Copyright (c) Steve Scherf et al.
# Submitted via: CDex 1.51
#
DISCID=d70e4411
DTITLE=Manu Le Prince - Tribute To Cole Porter
DYEAR=2008
DGENRE=Jazz
TTITLE0=All Trough The Night
TTITLE1=I Get A Kick Out Of You
TTITLE2=Get Out Of Town
TTITLE3=Night And Day
TTITLE4=From This Moment On
TTITLE5=Let's Fall In Love
TTITLE6=Just One Of Those Things
TTITLE7=Love For Sale
TTITLE8=I've Got You Under My Skin
TTITLE9=Miss Otis
TTITLE10=It's Too Darn Hot
TTITLE11=I Concentrate On You
TTITLE12=What Is This Thing Called Love
TTITLE13=I Am In Love
TTITLE14=It's Allright With Me
TTITLE15=All Of You
TTITLE16=Everytime We Say Goodbye
EXTD=YEAR: 2008
EXTT0=
EXTT1=
EXTT2=
EXTT3=
EXTT4=
EXTT5=
EXTT6=
EXTT7=
EXTT8=
EXTT9=
EXTT10=
EXTT11=
EXTT12=
EXTT13=
EXTT14=
EXTT15=
EXTT16=
PLAYORDER=
